<svg xmlns="http://www.w3.org/2000/svg" xmlns:svg="http://www.w3.org/2000/svg" id="svg8" width="87.149" height="37.111" version="1.1" viewBox="0 0 461.164 196.379"><metadata id="metadata5"/><g id="layer1" style="display:inline" transform="translate(319.16852,-98.581295)"><path style="fill:none;fill-opacity:1;fill-rule:evenodd;stroke:#fff;stroke-width:5;stroke-linecap:butt;stroke-linejoin:miter;stroke-miterlimit:4;stroke-dasharray:none;stroke-opacity:1" id="Outline" d="m -290.00765,177.53052 7.30519,71.36096 55.25252,16.03618 215.076885,1.06907 30.407428,-31.5378 94.930487,-12.2944 -1.4833,-45.43582 -94.559656,-10.69078 -31.890713,-38.48681 -219.155941,2.13815 -8.15808,34.74504 z"/><path style="fill:#fff;fill-opacity:1;fill-rule:evenodd;stroke:#fff;stroke-width:.26458332px;stroke-linecap:butt;stroke-linejoin:miter;stroke-opacity:1" id="Island" d="m -82.210854,265.48522 0.200595,-46.99016 h -24.786801 l -0.73387,13.23009 -59.39478,-0.54281 -0.6013,33.61805 z"/><path style="fill:none;fill-rule:evenodd;stroke:#fff;stroke-width:.26458332px;stroke-linecap:butt;stroke-linejoin:miter;stroke-opacity:1" id="path832" d="m -286.7815,192.23034 4.44986,40.62497"/><path style="fill:none;fill-opacity:1;fill-rule:evenodd;stroke:#fff;stroke-width:5;stroke-linecap:butt;stroke-linejoin:miter;stroke-miterlimit:4;stroke-dasharray:none;stroke-opacity:1" id="LandingMarks" d="m -14.968809,127.55112 -271.812691,64.67922 2.97333,48.86685 300.730074,-75.05926"/><path style="fill:none;fill-rule:evenodd;stroke:#fff;stroke-width:5;stroke-linecap:butt;stroke-linejoin:miter;stroke-miterlimit:4;stroke-dasharray:none;stroke-opacity:1" id="Cat1" d="M -47.355536,198.09657 100.08338,193.60644"/><path style="fill:none;fill-rule:evenodd;stroke:#fff;stroke-width:5;stroke-linecap:butt;stroke-linejoin:miter;stroke-miterlimit:4;stroke-dasharray:none;stroke-opacity:1" id="Cat2" d="M -44.09832,226.88876 102.04272,209.30242"/><path style="fill:none;fill-rule:evenodd;stroke:#fff;stroke-width:5;stroke-linecap:butt;stroke-linejoin:miter;stroke-miterlimit:4;stroke-dasharray:29.99999994,4.99999999;stroke-dashoffset:0;stroke-opacity:1" id="Centerline" d="M -273.57231,212.56627 -18.148692,149.13964"/></g></svg>